<svg width="328" height="67" viewBox="0 0 328 67" fill="none" xmlns="http://www.w3.org/2000/svg">
<path d="M0 24C0 10.7452 10.7452 0 24 0H304C317.255 0 328 10.7452 328 24V43C328 56.2548 317.255 67 304 67H24C10.7452 67 0 56.2548 0 43V24Z" fill="#0A3871"/>
<path d="M131.339 39H138.452V37.75H132.748V33.7955H137.998V32.5455H132.748V28.6136H138.362V27.3636H131.339V39ZM142.06 33.75C142.06 32.2273 143.004 31.3636 144.288 31.3636C145.532 31.3636 146.288 32.1761 146.288 33.5455V39H147.629V33.4545C147.629 31.2273 146.441 30.1591 144.674 30.1591C143.356 30.1591 142.538 30.75 142.129 31.6364H142.015V30.2727H140.719V39H142.06V33.75ZM153.624 39.1818C155.556 39.1818 156.829 38 157.056 36.4545H155.715C155.465 37.4091 154.67 37.9773 153.624 37.9773C152.033 37.9773 151.011 36.6591 151.011 34.6364C151.011 32.6591 152.056 31.3636 153.624 31.3636C154.806 31.3636 155.511 32.0909 155.715 32.8864H157.056C156.829 31.25 155.442 30.1591 153.602 30.1591C151.238 30.1591 149.67 32.0227 149.67 34.6818C149.67 37.2955 151.17 39.1818 153.624 39.1818ZM159.016 39H160.357V33.4773C160.357 32.2955 161.289 31.4318 162.562 31.4318C162.92 31.4318 163.289 31.5 163.38 31.5227V30.1591C163.227 30.1477 162.874 30.1364 162.675 30.1364C161.63 30.1364 160.721 30.7273 160.403 31.5909H160.312V30.2727H159.016V39ZM164.969 39H166.31V30.2727H164.969V39ZM165.651 28.8182C166.174 28.8182 166.606 28.4091 166.606 27.9091C166.606 27.4091 166.174 27 165.651 27C165.129 27 164.697 27.4091 164.697 27.9091C164.697 28.4091 165.129 28.8182 165.651 28.8182ZM168.766 42.2727H170.107V37.6591H170.221C170.516 38.1364 171.085 39.1818 172.766 39.1818C174.948 39.1818 176.471 37.4318 176.471 34.6591C176.471 31.9091 174.948 30.1591 172.744 30.1591C171.039 30.1591 170.516 31.2045 170.221 31.6591H170.062V30.2727H168.766V42.2727ZM170.085 34.6364C170.085 32.6818 170.948 31.3636 172.585 31.3636C174.289 31.3636 175.13 32.7955 175.13 34.6364C175.13 36.5 174.266 37.9773 172.585 37.9773C170.971 37.9773 170.085 36.6136 170.085 34.6364ZM182.312 30.2727H180.448V28.1818H179.107V30.2727H177.789V31.4091H179.107V36.8636C179.107 38.3864 180.335 39.1136 181.471 39.1136C181.971 39.1136 182.289 39.0227 182.471 38.9545L182.198 37.75C182.085 37.7727 181.903 37.8182 181.607 37.8182C181.016 37.8182 180.448 37.6364 180.448 36.5V31.4091H182.312V30.2727ZM186.897 39.2045C188.42 39.2045 189.215 38.3864 189.488 37.8182H189.556V39H190.897V33.25C190.897 30.4773 188.783 30.1591 187.67 30.1591C186.352 30.1591 184.852 30.6136 184.17 32.2045L185.442 32.6591C185.738 32.0227 186.437 31.3409 187.715 31.3409C188.948 31.3409 189.556 31.9943 189.556 33.1136V33.1591C189.556 33.8068 188.897 33.75 187.306 33.9545C185.687 34.1648 183.92 34.5227 183.92 36.5227C183.92 38.2273 185.238 39.2045 186.897 39.2045ZM187.102 38C186.033 38 185.261 37.5227 185.261 36.5909C185.261 35.5682 186.192 35.25 187.238 35.1136C187.806 35.0455 189.329 34.8864 189.556 34.6136V35.8409C189.556 36.9318 188.692 38 187.102 38ZM193.344 39H194.685V33.4773C194.685 32.2955 195.617 31.4318 196.89 31.4318C197.248 31.4318 197.617 31.5 197.708 31.5227V30.1591C197.555 30.1477 197.202 30.1364 197.004 30.1364C195.958 30.1364 195.049 30.7273 194.731 31.5909H194.64V30.2727H193.344V39Z" fill="white"/>
</svg>
