<?xml version="1.0" standalone="no"?>
<!DOCTYPE svg PUBLIC "-//W3C//DTD SVG 20010904//EN"
 "http://www.w3.org/TR/2001/REC-SVG-20010904/DTD/svg10.dtd">
<svg version="1.0" xmlns="http://www.w3.org/2000/svg"
 width="266.000000pt" height="237.000000pt" viewBox="0 0 266.000000 237.000000"
 preserveAspectRatio="xMidYMid meet">

<g transform="translate(0.000000,237.000000) scale(0.100000,-0.100000)"
fill="#000000" stroke="none">
<path d="M1150 2363 c-351 -56 -631 -195 -835 -415 -205 -221 -305 -470 -305
-758 0 -306 111 -563 339 -790 258 -256 597 -390 986 -390 396 0 732 135 995
401 152 153 246 315 301 514 30 113 38 336 15 458 -43 228 -149 422 -325 597
-199 197 -463 329 -747 374 -93 15 -355 20 -424 9z m480 -38 c272 -60 499
-182 681 -364 151 -151 246 -313 301 -514 19 -70 23 -107 23 -257 0 -150 -4
-187 -23 -257 -48 -175 -136 -338 -254 -467 l-54 -60 4 37 c3 27 -3 48 -21 79
-54 92 -219 232 -351 300 -117 59 -212 31 -426 -127 -63 -47 -118 -85 -122
-85 -5 0 -75 20 -157 44 -254 76 -376 99 -536 100 -111 1 -151 -3 -192 -17
-98 -34 -173 -125 -189 -228 l-7 -42 -24 29 c-54 64 -138 201 -170 277 -66
156 -78 222 -78 417 0 150 4 187 23 257 51 188 145 353 281 496 196 205 455
339 761 393 104 18 429 12 530 -11z m295 -1559 c111 -59 262 -185 309 -259 32
-50 30 -66 -8 -82 -85 -36 -264 -2 -651 121 -60 20 -111 37 -113 39 -4 4 141
114 198 150 53 33 135 64 172 65 14 0 56 -15 93 -34z m-1135 -66 c121 -15 517
-114 537 -134 14 -14 -102 -60 -237 -95 -312 -80 -411 -79 -702 6 -25 7 -22
40 7 100 32 63 84 100 169 118 77 17 120 18 226 5z m800 -215 c290 -92 409
-119 530 -119 58 -1 116 3 130 7 21 7 18 2 -15 -28 -147 -130 -384 -243 -615
-292 -121 -26 -449 -26 -570 0 -255 55 -485 169 -648 323 l-67 63 74 -24 c212
-71 393 -72 660 -5 173 43 225 62 287 104 21 14 44 26 50 26 6 0 88 -25 184
-55z"/>
<path d="M750 1873 c0 -213 -15 -511 -30 -593 -11 -59 -30 -92 -74 -124 -23
-18 -42 -21 -124 -21 -80 0 -111 5 -180 29 -46 15 -85 26 -87 24 -5 -5 14
-285 20 -304 12 -38 418 -68 538 -40 109 26 198 76 244 139 44 59 53 117 64
382 5 138 16 344 24 459 8 115 15 215 15 223 0 10 -40 13 -205 13 l-205 0 0
-187z m380 135 c0 -13 -5 -84 -10 -158 -6 -74 -17 -276 -24 -449 -14 -313 -14
-314 -43 -370 -32 -63 -87 -106 -177 -140 -75 -28 -207 -44 -296 -36 -102 9
-263 35 -274 45 -8 8 -29 240 -22 248 2 2 35 -6 72 -18 87 -27 196 -36 252
-21 62 17 109 63 127 125 20 70 33 235 41 539 l7 257 174 0 c173 0 173 0 173
-22z"/>
<path d="M1346 1785 c-6 -261 -28 -710 -42 -861 l-7 -74 192 0 191 0 0 142 c0
170 18 710 25 754 5 31 7 32 73 38 125 11 182 -19 182 -96 0 -90 -55 -132
-172 -131 -43 1 -78 -2 -78 -5 0 -17 60 -245 65 -251 4 -3 44 -8 90 -9 256
-11 440 124 476 348 12 74 0 168 -31 236 -25 58 -91 121 -159 153 l-56 26
-371 0 -371 1 -7 -271z m783 222 c35 -13 72 -37 102 -67 124 -124 116 -370
-18 -503 -81 -82 -179 -117 -329 -117 l-91 0 -24 103 -24 102 72 5 c77 6 109
22 146 71 46 63 26 168 -37 194 -38 16 -231 21 -240 7 -7 -11 -23 -368 -32
-678 l-6 -252 -161 1 -160 0 6 81 c11 142 36 654 43 868 l6 208 247 3 c336 4
434 -1 500 -26z"/>
</g>
</svg>
